<?xml version="1.0" encoding="UTF-8" standalone="no"?>
<!DOCTYPE svg PUBLIC "-//W3C//DTD SVG 1.1//EN"
 "http://www.w3.org/Graphics/SVG/1.1/DTD/svg11.dtd">
<!-- Generated by graphviz version 2.38.0 (20140413.2041)
 -->
<!-- Title: output Pages: 1 -->
<svg width="633pt" height="1483pt"
 viewBox="0.00 0.00 633.00 1483.00" xmlns="http://www.w3.org/2000/svg" xmlns:xlink="http://www.w3.org/1999/xlink">
<g id="graph0" class="graph" transform="scale(1 1) rotate(0) translate(4 1479)">
<title>output</title>
<polygon fill="white" stroke="none" points="-4,4 -4,-1479 629,-1479 629,4 -4,4"/>
<!-- Legend -->
<g id="node1" class="node"><title>Legend</title>
<polygon fill="#e0e0e0" stroke="none" points="8.5,-1420.5 8.5,-1443.5 209.5,-1443.5 209.5,-1420.5 8.5,-1420.5"/>
<polygon fill="none" stroke="black" points="8.5,-1420.5 8.5,-1443.5 209.5,-1443.5 209.5,-1420.5 8.5,-1420.5"/>
<text text-anchor="start" x="93" y="-1428.3" font-family="Times,serif" font-size="14.00">Layer</text>
<polygon fill="#88ffff" stroke="none" points="8.5,-1382.5 8.5,-1420.5 89.5,-1420.5 89.5,-1382.5 8.5,-1382.5"/>
<polygon fill="none" stroke="black" points="8.5,-1382.5 8.5,-1420.5 89.5,-1420.5 89.5,-1382.5 8.5,-1382.5"/>
<text text-anchor="start" x="12.5" y="-1405.3" font-family="Times,serif" font-size="14.00"> Complexity </text>
<text text-anchor="start" x="15" y="-1390.3" font-family="Times,serif" font-size="14.00"> (MFLOPs) </text>
<polygon fill="#ff88ff" stroke="none" points="89.5,-1382.5 89.5,-1420.5 164.5,-1420.5 164.5,-1382.5 89.5,-1382.5"/>
<polygon fill="none" stroke="black" points="89.5,-1382.5 89.5,-1420.5 164.5,-1420.5 164.5,-1382.5 89.5,-1382.5"/>
<text text-anchor="start" x="93.5" y="-1405.3" font-family="Times,serif" font-size="14.00"> Bandwidth </text>
<text text-anchor="start" x="103" y="-1390.3" font-family="Times,serif" font-size="14.00"> (MB/s) </text>
<polygon fill="#ffff88" stroke="none" points="164.5,-1382.5 164.5,-1420.5 209.5,-1420.5 209.5,-1382.5 164.5,-1382.5"/>
<polygon fill="none" stroke="black" points="164.5,-1382.5 164.5,-1420.5 209.5,-1420.5 209.5,-1382.5 164.5,-1382.5"/>
<text text-anchor="start" x="168.5" y="-1405.3" font-family="Times,serif" font-size="14.00"> Time </text>
<text text-anchor="start" x="172" y="-1390.3" font-family="Times,serif" font-size="14.00"> (ms)</text>
</g>
<!-- Input -->
<g id="node2" class="node"><title>Input</title>
<ellipse fill="none" stroke="black" cx="320.5" cy="-1413.5" rx="85.2851" ry="18"/>
<text text-anchor="middle" x="320.5" y="-1409.8" font-family="Times,serif" font-size="14.00">input: (1, 66, 200, 3)</text>
</g>
<!-- relu1 -->
<g id="node3" class="node"><title>relu1</title>
<polygon fill="#a3a3a3" stroke="none" points="232.5,-1289 232.5,-1312 408.5,-1312 408.5,-1289 232.5,-1289"/>
<polygon fill="none" stroke="black" points="232.5,-1289 232.5,-1312 408.5,-1312 408.5,-1289 232.5,-1289"/>
<text text-anchor="start" x="306.5" y="-1296.8" font-family="Times,serif" font-size="14.00">relu1</text>
<polygon fill="#dddddd" stroke="none" points="232.5,-1266 232.5,-1289 408.5,-1289 408.5,-1266 232.5,-1266"/>
<polygon fill="none" stroke="black" points="232.5,-1266 232.5,-1289 408.5,-1289 408.5,-1266 232.5,-1266"/>
<text text-anchor="start" x="288" y="-1273.8" font-family="Times,serif" font-size="14.00">(24, 98, 31)</text>
<polygon fill="#7ee4df" stroke="none" points="232.5,-1228 232.5,-1266 308.5,-1266 308.5,-1228 232.5,-1228"/>
<polygon fill="none" stroke="black" points="232.5,-1228 232.5,-1266 308.5,-1266 308.5,-1228 232.5,-1228"/>
<text text-anchor="start" x="244.5" y="-1250.8" font-family="Times,serif" font-size="14.00"> 10.9368 </text>
<text text-anchor="start" x="236.5" y="-1235.8" font-family="Times,serif" font-size="14.00"> (MFLOPs) </text>
<polygon fill="#d472c7" stroke="none" points="308.5,-1228 308.5,-1266 368.5,-1266 368.5,-1228 308.5,-1228"/>
<polygon fill="none" stroke="black" points="308.5,-1228 308.5,-1266 368.5,-1266 368.5,-1228 308.5,-1228"/>
<text text-anchor="start" x="312.5" y="-1250.8" font-family="Times,serif" font-size="14.00"> 1187.97 </text>
<text text-anchor="start" x="314.5" y="-1235.8" font-family="Times,serif" font-size="14.00"> (MB/s) </text>
<polygon fill="#ffff07" stroke="none" points="368.5,-1228 368.5,-1266 408.5,-1266 408.5,-1228 368.5,-1228"/>
<polygon fill="none" stroke="black" points="368.5,-1228 368.5,-1266 408.5,-1266 408.5,-1228 368.5,-1228"/>
<text text-anchor="start" x="372.5" y="-1250.8" font-family="Times,serif" font-size="14.00"> 1.59 </text>
<text text-anchor="start" x="373.5" y="-1235.8" font-family="Times,serif" font-size="14.00"> (ms)</text>
</g>
<!-- Input&#45;&gt;relu1 -->
<g id="edge1" class="edge"><title>Input&#45;&gt;relu1</title>
<path fill="none" stroke="black" d="M320.5,-1395.43C320.5,-1378.25 320.5,-1350.81 320.5,-1326.07"/>
<polygon fill="black" stroke="black" points="324,-1326.03 320.5,-1316.03 317,-1326.03 324,-1326.03"/>
</g>
<!-- relu2 -->
<g id="node4" class="node"><title>relu2</title>
<polygon fill="#a3a3a3" stroke="none" points="232.5,-1161 232.5,-1184 408.5,-1184 408.5,-1161 232.5,-1161"/>
<polygon fill="none" stroke="black" points="232.5,-1161 232.5,-1184 408.5,-1184 408.5,-1161 232.5,-1161"/>
<text text-anchor="start" x="306.5" y="-1168.8" font-family="Times,serif" font-size="14.00">relu2</text>
<polygon fill="#dddddd" stroke="none" points="232.5,-1138 232.5,-1161 408.5,-1161 408.5,-1138 232.5,-1138"/>
<polygon fill="none" stroke="black" points="232.5,-1138 232.5,-1161 408.5,-1161 408.5,-1138 232.5,-1138"/>
<text text-anchor="start" x="288" y="-1145.8" font-family="Times,serif" font-size="14.00">(36, 47, 14)</text>
<polygon fill="#2ed1c6" stroke="none" points="232.5,-1100 232.5,-1138 308.5,-1138 308.5,-1100 232.5,-1100"/>
<polygon fill="none" stroke="black" points="232.5,-1100 232.5,-1138 308.5,-1138 308.5,-1100 232.5,-1100"/>
<text text-anchor="start" x="244.5" y="-1122.8" font-family="Times,serif" font-size="14.00"> 28.4256 </text>
<text text-anchor="start" x="236.5" y="-1107.8" font-family="Times,serif" font-size="14.00"> (MFLOPs) </text>
<polygon fill="#b2189e" stroke="none" points="308.5,-1100 308.5,-1138 368.5,-1138 368.5,-1100 308.5,-1100"/>
<polygon fill="none" stroke="black" points="308.5,-1100 308.5,-1138 368.5,-1138 368.5,-1100 308.5,-1100"/>
<text text-anchor="start" x="312.5" y="-1122.8" font-family="Times,serif" font-size="14.00"> 2128.84 </text>
<text text-anchor="start" x="314.5" y="-1107.8" font-family="Times,serif" font-size="14.00"> (MB/s) </text>
<polygon fill="#ffff00" stroke="none" points="368.5,-1100 368.5,-1138 408.5,-1138 408.5,-1100 368.5,-1100"/>
<polygon fill="none" stroke="black" points="368.5,-1100 368.5,-1138 408.5,-1138 408.5,-1100 368.5,-1100"/>
<text text-anchor="start" x="372.5" y="-1122.8" font-family="Times,serif" font-size="14.00"> 1.65 </text>
<text text-anchor="start" x="373.5" y="-1107.8" font-family="Times,serif" font-size="14.00"> (ms)</text>
</g>
<!-- relu1&#45;&gt;relu2 -->
<g id="edge2" class="edge"><title>relu1&#45;&gt;relu2</title>
<path fill="none" stroke="black" d="M320.5,-1223.87C320.5,-1215.63 320.5,-1206.96 320.5,-1198.47"/>
<polygon fill="black" stroke="black" points="324,-1198.24 320.5,-1188.24 317,-1198.24 324,-1198.24"/>
</g>
<!-- relu3 -->
<g id="node5" class="node"><title>relu3</title>
<polygon fill="#a3a3a3" stroke="none" points="232.5,-1033 232.5,-1056 408.5,-1056 408.5,-1033 232.5,-1033"/>
<polygon fill="none" stroke="black" points="232.5,-1033 232.5,-1056 408.5,-1056 408.5,-1033 232.5,-1033"/>
<text text-anchor="start" x="306.5" y="-1040.8" font-family="Times,serif" font-size="14.00">relu3</text>
<polygon fill="#dddddd" stroke="none" points="232.5,-1010 232.5,-1033 408.5,-1033 408.5,-1010 232.5,-1010"/>
<polygon fill="none" stroke="black" points="232.5,-1010 232.5,-1033 408.5,-1033 408.5,-1010 232.5,-1010"/>
<text text-anchor="start" x="291.5" y="-1017.8" font-family="Times,serif" font-size="14.00">(48, 22, 5)</text>
<polygon fill="#85e6e1" stroke="none" points="232.5,-972 232.5,-1010 308.5,-1010 308.5,-972 232.5,-972"/>
<polygon fill="none" stroke="black" points="232.5,-972 232.5,-1010 308.5,-1010 308.5,-972 232.5,-972"/>
<text text-anchor="start" x="251" y="-994.8" font-family="Times,serif" font-size="14.00"> 9.504 </text>
<text text-anchor="start" x="236.5" y="-979.8" font-family="Times,serif" font-size="14.00"> (MFLOPs) </text>
<polygon fill="#d069c3" stroke="none" points="308.5,-972 308.5,-1010 368.5,-1010 368.5,-972 308.5,-972"/>
<polygon fill="none" stroke="black" points="308.5,-972 308.5,-1010 368.5,-1010 368.5,-972 308.5,-972"/>
<text text-anchor="start" x="312.5" y="-994.8" font-family="Times,serif" font-size="14.00"> 1281.26 </text>
<text text-anchor="start" x="314.5" y="-979.8" font-family="Times,serif" font-size="14.00"> (MB/s) </text>
<polygon fill="#ffff58" stroke="none" points="368.5,-972 368.5,-1010 408.5,-1010 408.5,-972 368.5,-972"/>
<polygon fill="none" stroke="black" points="368.5,-972 368.5,-1010 408.5,-1010 408.5,-972 368.5,-972"/>
<text text-anchor="start" x="372.5" y="-994.8" font-family="Times,serif" font-size="14.00"> 0.95 </text>
<text text-anchor="start" x="373.5" y="-979.8" font-family="Times,serif" font-size="14.00"> (ms)</text>
</g>
<!-- relu2&#45;&gt;relu3 -->
<g id="edge3" class="edge"><title>relu2&#45;&gt;relu3</title>
<path fill="none" stroke="black" d="M320.5,-1095.87C320.5,-1087.63 320.5,-1078.96 320.5,-1070.47"/>
<polygon fill="black" stroke="black" points="324,-1070.24 320.5,-1060.24 317,-1070.24 324,-1070.24"/>
</g>
<!-- relu4 -->
<g id="node6" class="node"><title>relu4</title>
<polygon fill="#a3a3a3" stroke="none" points="234.5,-905 234.5,-928 406.5,-928 406.5,-905 234.5,-905"/>
<polygon fill="none" stroke="black" points="234.5,-905 234.5,-928 406.5,-928 406.5,-905 234.5,-905"/>
<text text-anchor="start" x="306.5" y="-912.8" font-family="Times,serif" font-size="14.00">relu4</text>
<polygon fill="#dddddd" stroke="none" points="234.5,-882 234.5,-905 406.5,-905 406.5,-882 234.5,-882"/>
<polygon fill="none" stroke="black" points="234.5,-882 234.5,-905 406.5,-905 406.5,-882 234.5,-882"/>
<text text-anchor="start" x="291.5" y="-889.8" font-family="Times,serif" font-size="14.00">(64, 20, 3)</text>
<polygon fill="#a1edea" stroke="none" points="234.5,-844 234.5,-882 310.5,-882 310.5,-844 234.5,-844"/>
<polygon fill="none" stroke="black" points="234.5,-844 234.5,-882 310.5,-882 310.5,-844 234.5,-844"/>
<text text-anchor="start" x="246.5" y="-866.8" font-family="Times,serif" font-size="14.00"> 3.31776 </text>
<text text-anchor="start" x="238.5" y="-851.8" font-family="Times,serif" font-size="14.00"> (MFLOPs) </text>
<polygon fill="#f0bfea" stroke="none" points="310.5,-844 310.5,-882 366.5,-882 366.5,-844 310.5,-844"/>
<polygon fill="none" stroke="black" points="310.5,-844 310.5,-882 366.5,-882 366.5,-844 310.5,-844"/>
<text text-anchor="start" x="315.5" y="-866.8" font-family="Times,serif" font-size="14.00"> 393.60 </text>
<text text-anchor="start" x="314.5" y="-851.8" font-family="Times,serif" font-size="14.00"> (MB/s) </text>
<polygon fill="#ffffa1" stroke="none" points="366.5,-844 366.5,-882 406.5,-882 406.5,-844 366.5,-844"/>
<polygon fill="none" stroke="black" points="366.5,-844 366.5,-882 406.5,-882 406.5,-844 366.5,-844"/>
<text text-anchor="start" x="370.5" y="-866.8" font-family="Times,serif" font-size="14.00"> 0.37 </text>
<text text-anchor="start" x="371.5" y="-851.8" font-family="Times,serif" font-size="14.00"> (ms)</text>
</g>
<!-- relu3&#45;&gt;relu4 -->
<g id="edge4" class="edge"><title>relu3&#45;&gt;relu4</title>
<path fill="none" stroke="black" d="M320.5,-967.867C320.5,-959.634 320.5,-950.957 320.5,-942.465"/>
<polygon fill="black" stroke="black" points="324,-942.241 320.5,-932.241 317,-942.241 324,-942.241"/>
</g>
<!-- relu5 -->
<g id="node7" class="node"><title>relu5</title>
<polygon fill="#a3a3a3" stroke="none" points="234.5,-777 234.5,-800 406.5,-800 406.5,-777 234.5,-777"/>
<polygon fill="none" stroke="black" points="234.5,-777 234.5,-800 406.5,-800 406.5,-777 234.5,-777"/>
<text text-anchor="start" x="306.5" y="-784.8" font-family="Times,serif" font-size="14.00">relu5</text>
<polygon fill="#dddddd" stroke="none" points="234.5,-754 234.5,-777 406.5,-777 406.5,-754 234.5,-754"/>
<polygon fill="none" stroke="black" points="234.5,-754 234.5,-777 406.5,-777 406.5,-754 234.5,-754"/>
<text text-anchor="start" x="291.5" y="-761.8" font-family="Times,serif" font-size="14.00">(64, 18, 1)</text>
<polygon fill="#aaefed" stroke="none" points="234.5,-716 234.5,-754 310.5,-754 310.5,-716 234.5,-716"/>
<polygon fill="none" stroke="black" points="234.5,-716 234.5,-754 310.5,-754 310.5,-716 234.5,-716"/>
<text text-anchor="start" x="243" y="-738.8" font-family="Times,serif" font-size="14.00"> 1.327104 </text>
<text text-anchor="start" x="238.5" y="-723.8" font-family="Times,serif" font-size="14.00"> (MFLOPs) </text>
<polygon fill="#f4c9ef" stroke="none" points="310.5,-716 310.5,-754 366.5,-754 366.5,-716 310.5,-716"/>
<polygon fill="none" stroke="black" points="310.5,-716 310.5,-754 366.5,-754 366.5,-716 310.5,-716"/>
<text text-anchor="start" x="315.5" y="-738.8" font-family="Times,serif" font-size="14.00"> 290.57 </text>
<text text-anchor="start" x="314.5" y="-723.8" font-family="Times,serif" font-size="14.00"> (MB/s) </text>
<polygon fill="#ffff94" stroke="none" points="366.5,-716 366.5,-754 406.5,-754 406.5,-716 366.5,-716"/>
<polygon fill="none" stroke="black" points="366.5,-716 366.5,-754 406.5,-754 406.5,-716 366.5,-716"/>
<text text-anchor="start" x="370.5" y="-738.8" font-family="Times,serif" font-size="14.00"> 0.47 </text>
<text text-anchor="start" x="371.5" y="-723.8" font-family="Times,serif" font-size="14.00"> (ms)</text>
</g>
<!-- relu4&#45;&gt;relu5 -->
<g id="edge5" class="edge"><title>relu4&#45;&gt;relu5</title>
<path fill="none" stroke="black" d="M320.5,-839.867C320.5,-831.634 320.5,-822.957 320.5,-814.465"/>
<polygon fill="black" stroke="black" points="324,-814.241 320.5,-804.241 317,-814.241 324,-814.241"/>
</g>
<!-- relu6 -->
<g id="node8" class="node"><title>relu6</title>
<polygon fill="#a3a3a3" stroke="none" points="232.5,-649 232.5,-672 408.5,-672 408.5,-649 232.5,-649"/>
<polygon fill="none" stroke="black" points="232.5,-649 232.5,-672 408.5,-672 408.5,-649 232.5,-649"/>
<text text-anchor="start" x="306.5" y="-656.8" font-family="Times,serif" font-size="14.00">relu6</text>
<polygon fill="#dddddd" stroke="none" points="232.5,-626 232.5,-649 408.5,-649 408.5,-626 232.5,-626"/>
<polygon fill="none" stroke="black" points="232.5,-626 232.5,-649 408.5,-649 408.5,-626 232.5,-626"/>
<text text-anchor="start" x="291.5" y="-633.8" font-family="Times,serif" font-size="14.00">(100, 1, 1)</text>
<polygon fill="#aff0ee" stroke="none" points="232.5,-588 232.5,-626 308.5,-626 308.5,-588 232.5,-588"/>
<polygon fill="none" stroke="black" points="232.5,-588 232.5,-626 308.5,-626 308.5,-588 232.5,-588"/>
<text text-anchor="start" x="247.5" y="-610.8" font-family="Times,serif" font-size="14.00"> 0.2304 </text>
<text text-anchor="start" x="236.5" y="-595.8" font-family="Times,serif" font-size="14.00"> (MFLOPs) </text>
<polygon fill="#be3aad" stroke="none" points="308.5,-588 308.5,-626 368.5,-626 368.5,-588 308.5,-588"/>
<polygon fill="none" stroke="black" points="308.5,-588 308.5,-626 368.5,-626 368.5,-588 308.5,-588"/>
<text text-anchor="start" x="312.5" y="-610.8" font-family="Times,serif" font-size="14.00"> 1770.71 </text>
<text text-anchor="start" x="314.5" y="-595.8" font-family="Times,serif" font-size="14.00"> (MB/s) </text>
<polygon fill="#ffffbf" stroke="none" points="368.5,-588 368.5,-626 408.5,-626 408.5,-588 368.5,-588"/>
<polygon fill="none" stroke="black" points="368.5,-588 368.5,-626 408.5,-626 408.5,-588 368.5,-588"/>
<text text-anchor="start" x="372.5" y="-610.8" font-family="Times,serif" font-size="14.00"> 0.13 </text>
<text text-anchor="start" x="373.5" y="-595.8" font-family="Times,serif" font-size="14.00"> (ms)</text>
</g>
<!-- relu5&#45;&gt;relu6 -->
<g id="edge6" class="edge"><title>relu5&#45;&gt;relu6</title>
<path fill="none" stroke="black" d="M320.5,-711.867C320.5,-703.634 320.5,-694.957 320.5,-686.465"/>
<polygon fill="black" stroke="black" points="324,-686.241 320.5,-676.241 317,-686.241 324,-686.241"/>
</g>
<!-- relu7 -->
<g id="node9" class="node"><title>relu7</title>
<polygon fill="#a3a3a3" stroke="none" points="234.5,-521 234.5,-544 406.5,-544 406.5,-521 234.5,-521"/>
<polygon fill="none" stroke="black" points="234.5,-521 234.5,-544 406.5,-544 406.5,-521 234.5,-521"/>
<text text-anchor="start" x="306.5" y="-528.8" font-family="Times,serif" font-size="14.00">relu7</text>
<polygon fill="#dddddd" stroke="none" points="234.5,-498 234.5,-521 406.5,-521 406.5,-498 234.5,-498"/>
<polygon fill="none" stroke="black" points="234.5,-498 234.5,-521 406.5,-521 406.5,-498 234.5,-498"/>
<text text-anchor="start" x="294.5" y="-505.8" font-family="Times,serif" font-size="14.00">(50, 1, 1)</text>
<polygon fill="#b0f0ee" stroke="none" points="234.5,-460 234.5,-498 310.5,-498 310.5,-460 234.5,-460"/>
<polygon fill="none" stroke="black" points="234.5,-460 234.5,-498 310.5,-498 310.5,-460 234.5,-460"/>
<text text-anchor="start" x="256.5" y="-482.8" font-family="Times,serif" font-size="14.00"> 0.01 </text>
<text text-anchor="start" x="238.5" y="-467.8" font-family="Times,serif" font-size="14.00"> (MFLOPs) </text>
<polygon fill="#fcdff9" stroke="none" points="310.5,-460 310.5,-498 366.5,-498 366.5,-460 310.5,-460"/>
<polygon fill="none" stroke="black" points="310.5,-460 310.5,-498 366.5,-498 366.5,-460 310.5,-460"/>
<text text-anchor="start" x="319" y="-482.8" font-family="Times,serif" font-size="14.00"> 56.16 </text>
<text text-anchor="start" x="314.5" y="-467.8" font-family="Times,serif" font-size="14.00"> (MB/s) </text>
<polygon fill="#ffffba" stroke="none" points="366.5,-460 366.5,-498 406.5,-498 406.5,-460 366.5,-460"/>
<polygon fill="none" stroke="black" points="366.5,-460 366.5,-498 406.5,-498 406.5,-460 366.5,-460"/>
<text text-anchor="start" x="370.5" y="-482.8" font-family="Times,serif" font-size="14.00"> 0.17 </text>
<text text-anchor="start" x="371.5" y="-467.8" font-family="Times,serif" font-size="14.00"> (ms)</text>
</g>
<!-- relu6&#45;&gt;relu7 -->
<g id="edge7" class="edge"><title>relu6&#45;&gt;relu7</title>
<path fill="none" stroke="black" d="M320.5,-583.867C320.5,-575.634 320.5,-566.957 320.5,-558.465"/>
<polygon fill="black" stroke="black" points="324,-558.241 320.5,-548.241 317,-558.241 324,-558.241"/>
</g>
<!-- relu9 -->
<g id="node10" class="node"><title>relu9</title>
<polygon fill="#a3a3a3" stroke="none" points="234.5,-393 234.5,-416 406.5,-416 406.5,-393 234.5,-393"/>
<polygon fill="none" stroke="black" points="234.5,-393 234.5,-416 406.5,-416 406.5,-393 234.5,-393"/>
<text text-anchor="start" x="306.5" y="-400.8" font-family="Times,serif" font-size="14.00">relu9</text>
<polygon fill="#dddddd" stroke="none" points="234.5,-370 234.5,-393 406.5,-393 406.5,-370 234.5,-370"/>
<polygon fill="none" stroke="black" points="234.5,-370 234.5,-393 406.5,-393 406.5,-370 234.5,-370"/>
<text text-anchor="start" x="294.5" y="-377.8" font-family="Times,serif" font-size="14.00">(10, 1, 1)</text>
<polygon fill="#b0f0ee" stroke="none" points="234.5,-332 234.5,-370 310.5,-370 310.5,-332 234.5,-332"/>
<polygon fill="none" stroke="black" points="234.5,-332 234.5,-370 310.5,-370 310.5,-332 234.5,-332"/>
<text text-anchor="start" x="253" y="-354.8" font-family="Times,serif" font-size="14.00"> 0.001 </text>
<text text-anchor="start" x="238.5" y="-339.8" font-family="Times,serif" font-size="14.00"> (MFLOPs) </text>
<polygon fill="#fde2fa" stroke="none" points="310.5,-332 310.5,-370 366.5,-370 366.5,-332 310.5,-332"/>
<polygon fill="none" stroke="black" points="310.5,-332 310.5,-370 366.5,-370 366.5,-332 310.5,-332"/>
<text text-anchor="start" x="319" y="-354.8" font-family="Times,serif" font-size="14.00"> 30.62 </text>
<text text-anchor="start" x="314.5" y="-339.8" font-family="Times,serif" font-size="14.00"> (MB/s) </text>
<polygon fill="#ffffcc" stroke="none" points="366.5,-332 366.5,-370 406.5,-370 406.5,-332 366.5,-332"/>
<polygon fill="none" stroke="black" points="366.5,-332 366.5,-370 406.5,-370 406.5,-332 366.5,-332"/>
<text text-anchor="start" x="370.5" y="-354.8" font-family="Times,serif" font-size="14.00"> 0.03 </text>
<text text-anchor="start" x="371.5" y="-339.8" font-family="Times,serif" font-size="14.00"> (ms)</text>
</g>
<!-- relu7&#45;&gt;relu9 -->
<g id="edge8" class="edge"><title>relu7&#45;&gt;relu9</title>
<path fill="none" stroke="black" d="M320.5,-455.867C320.5,-447.634 320.5,-438.957 320.5,-430.465"/>
<polygon fill="black" stroke="black" points="324,-430.241 320.5,-420.241 317,-430.241 324,-430.241"/>
</g>
<!-- add_8 -->
<g id="node11" class="node"><title>add_8</title>
<polygon fill="#a3a3a3" stroke="none" points="234.5,-265 234.5,-288 406.5,-288 406.5,-265 234.5,-265"/>
<polygon fill="none" stroke="black" points="234.5,-265 234.5,-288 406.5,-288 406.5,-265 234.5,-265"/>
<text text-anchor="start" x="303.5" y="-272.8" font-family="Times,serif" font-size="14.00">add_8</text>
<polygon fill="#dddddd" stroke="none" points="234.5,-242 234.5,-265 406.5,-265 406.5,-242 234.5,-242"/>
<polygon fill="none" stroke="black" points="234.5,-242 234.5,-265 406.5,-265 406.5,-242 234.5,-242"/>
<text text-anchor="start" x="298" y="-249.8" font-family="Times,serif" font-size="14.00">(1, 1, 1)</text>
<polygon fill="#b0f0ee" stroke="none" points="234.5,-204 234.5,-242 310.5,-242 310.5,-204 234.5,-204"/>
<polygon fill="none" stroke="black" points="234.5,-204 234.5,-242 310.5,-242 310.5,-204 234.5,-204"/>
<text text-anchor="start" x="253" y="-226.8" font-family="Times,serif" font-size="14.00"> 2e&#45;05 </text>
<text text-anchor="start" x="238.5" y="-211.8" font-family="Times,serif" font-size="14.00"> (MFLOPs) </text>
<polygon fill="#fee4fb" stroke="none" points="310.5,-204 310.5,-242 366.5,-242 366.5,-204 310.5,-204"/>
<polygon fill="none" stroke="black" points="310.5,-204 310.5,-242 366.5,-242 366.5,-204 310.5,-204"/>
<text text-anchor="start" x="322.5" y="-226.8" font-family="Times,serif" font-size="14.00"> 1.31 </text>
<text text-anchor="start" x="314.5" y="-211.8" font-family="Times,serif" font-size="14.00"> (MB/s) </text>
<polygon fill="#ffffcc" stroke="none" points="366.5,-204 366.5,-242 406.5,-242 406.5,-204 366.5,-204"/>
<polygon fill="none" stroke="black" points="366.5,-204 366.5,-242 406.5,-242 406.5,-204 366.5,-204"/>
<text text-anchor="start" x="370.5" y="-226.8" font-family="Times,serif" font-size="14.00"> 0.03 </text>
<text text-anchor="start" x="371.5" y="-211.8" font-family="Times,serif" font-size="14.00"> (ms)</text>
</g>
<!-- relu9&#45;&gt;add_8 -->
<g id="edge9" class="edge"><title>relu9&#45;&gt;add_8</title>
<path fill="none" stroke="black" d="M320.5,-327.867C320.5,-319.634 320.5,-310.957 320.5,-302.465"/>
<polygon fill="black" stroke="black" points="324,-302.241 320.5,-292.241 317,-302.241 324,-302.241"/>
</g>
<!-- output_y -->
<g id="node12" class="node"><title>output_y</title>
<polygon fill="#a3a3a3" stroke="none" points="234.5,-137 234.5,-160 406.5,-160 406.5,-137 234.5,-137"/>
<polygon fill="none" stroke="black" points="234.5,-137 234.5,-160 406.5,-160 406.5,-137 234.5,-137"/>
<text text-anchor="start" x="296" y="-144.8" font-family="Times,serif" font-size="14.00">output_y</text>
<polygon fill="#dddddd" stroke="none" points="234.5,-114 234.5,-137 406.5,-137 406.5,-114 234.5,-114"/>
<polygon fill="none" stroke="black" points="234.5,-114 234.5,-137 406.5,-137 406.5,-114 234.5,-114"/>
<text text-anchor="start" x="298" y="-121.8" font-family="Times,serif" font-size="14.00">(1, 1, 1)</text>
<polygon fill="#b1f1ef" stroke="none" points="234.5,-76 234.5,-114 310.5,-114 310.5,-76 234.5,-76"/>
<polygon fill="none" stroke="black" points="234.5,-76 234.5,-114 310.5,-114 310.5,-76 234.5,-76"/>
<text text-anchor="start" x="260" y="-98.8" font-family="Times,serif" font-size="14.00"> 0.0 </text>
<text text-anchor="start" x="238.5" y="-83.8" font-family="Times,serif" font-size="14.00"> (MFLOPs) </text>
<polygon fill="#ffe5fc" stroke="none" points="310.5,-76 310.5,-114 366.5,-114 366.5,-76 310.5,-76"/>
<polygon fill="none" stroke="black" points="310.5,-76 310.5,-114 366.5,-114 366.5,-76 310.5,-76"/>
<text text-anchor="start" x="322.5" y="-98.8" font-family="Times,serif" font-size="14.00"> 0.09 </text>
<text text-anchor="start" x="314.5" y="-83.8" font-family="Times,serif" font-size="14.00"> (MB/s) </text>
<polygon fill="#ffffc8" stroke="none" points="366.5,-76 366.5,-114 406.5,-114 406.5,-76 366.5,-76"/>
<polygon fill="none" stroke="black" points="366.5,-76 366.5,-114 406.5,-114 406.5,-76 366.5,-76"/>
<text text-anchor="start" x="370.5" y="-98.8" font-family="Times,serif" font-size="14.00"> 0.06 </text>
<text text-anchor="start" x="371.5" y="-83.8" font-family="Times,serif" font-size="14.00"> (ms)</text>
</g>
<!-- add_8&#45;&gt;output_y -->
<g id="edge10" class="edge"><title>add_8&#45;&gt;output_y</title>
<path fill="none" stroke="black" d="M320.5,-199.867C320.5,-191.634 320.5,-182.957 320.5,-174.465"/>
<polygon fill="black" stroke="black" points="324,-174.241 320.5,-164.241 317,-174.241 324,-174.241"/>
</g>
<!-- Output -->
<g id="node13" class="node"><title>Output</title>
<ellipse fill="none" stroke="black" cx="320.5" cy="-18" rx="66.8882" ry="18"/>
<text text-anchor="middle" x="320.5" y="-14.3" font-family="Times,serif" font-size="14.00">output: [1, 1, 1]</text>
</g>
<!-- output_y&#45;&gt;Output -->
<g id="edge11" class="edge"><title>output_y&#45;&gt;Output</title>
<path fill="none" stroke="black" d="M320.5,-71.7292C320.5,-63.0404 320.5,-54.1943 320.5,-46.2922"/>
<polygon fill="black" stroke="black" points="324,-46.2052 320.5,-36.2053 317,-46.2053 324,-46.2052"/>
</g>
<!-- Summary -->
<g id="node14" class="node"><title>Summary</title>
<polygon fill="#c60000" stroke="none" points="432.5,-1447.5 432.5,-1470.5 617.5,-1470.5 617.5,-1447.5 432.5,-1447.5"/>
<polygon fill="none" stroke="black" points="432.5,-1447.5 432.5,-1470.5 617.5,-1470.5 617.5,-1447.5 432.5,-1447.5"/>
<text text-anchor="start" x="497.5" y="-1455.3" font-family="Times,serif" font-size="14.00">Summary</text>
<polygon fill="#e2e2e2" stroke="none" points="432.5,-1424.5 432.5,-1447.5 617.5,-1447.5 617.5,-1424.5 432.5,-1424.5"/>
<polygon fill="none" stroke="black" points="432.5,-1424.5 432.5,-1447.5 617.5,-1447.5 617.5,-1424.5 432.5,-1424.5"/>
<text text-anchor="start" x="472" y="-1432.3" font-family="Times,serif" font-size="14.00">12 SHV Processors</text>
<polygon fill="#dadada" stroke="none" points="432.5,-1401.5 432.5,-1424.5 617.5,-1424.5 617.5,-1401.5 432.5,-1401.5"/>
<polygon fill="none" stroke="black" points="432.5,-1401.5 432.5,-1424.5 617.5,-1424.5 617.5,-1401.5 432.5,-1401.5"/>
<text text-anchor="start" x="461" y="-1409.3" font-family="Times,serif" font-size="14.00">Inference time 5.46 ms</text>
<polygon fill="#e2e2e2" stroke="none" points="432.5,-1378.5 432.5,-1401.5 617.5,-1401.5 617.5,-1378.5 432.5,-1378.5"/>
<polygon fill="none" stroke="black" points="432.5,-1378.5 432.5,-1401.5 617.5,-1401.5 617.5,-1378.5 432.5,-1378.5"/>
<text text-anchor="start" x="448" y="-1386.3" font-family="Times,serif" font-size="14.00">Bandwidth 1307.76 MB/sec</text>
<polygon fill="#dadada" stroke="none" points="432.5,-1355.5 432.5,-1378.5 617.5,-1378.5 617.5,-1355.5 432.5,-1355.5"/>
<polygon fill="none" stroke="black" points="432.5,-1355.5 432.5,-1378.5 617.5,-1378.5 617.5,-1355.5 432.5,-1355.5"/>
<text text-anchor="start" x="436.5" y="-1363.3" font-family="Times,serif" font-size="14.00">This network is Compute bound</text>
</g>
</g>
</svg>
